# xmcd
#
# Track frame offsets:
# 183
# 15290
# 28908
# 53598
# 68278
# 88160
# 101628
# 125295
# 146858
# 157525
# 171450
# 185225
# 202350
# 213903
# 233483
# 242780
# 267433
# 282073
# 296755
# 322138
#
# Disc length: 4488 seconds
#
#
# Revision: 3
# Processed by: cddbd v1.5PL3 Copyright (c) Steve Scherf et al.
# Submitted via: FreeRIP 2.70 
#
DISCID=28118614
DTITLE=Blues Hollerin' Boogie - Great Voices Of The Blues
DYEAR=1994
DGENRE=Blues
TTITLE0=Isaac Scott - Help
TTITLE1=Muddy Waters - Hoochie Coochie Man
TTITLE2=Big Twist And The Mellow Fellows - I Wouldn't Treat A Dog The Way You Treated Me
TTITLE3=Billy Boy Arnold With Tony McPhee - Just A Dream
TTITLE4=Tommy Tucker - Never Let Me Go
TTITLE5=John Lee Hooker - Wandering Blues
TTITLE6=Roy Gaines And The Crusaders - Lowdown And Funky
TTITLE7=Buster Benton With Carey Bell - Sorry
TTITLE8=Jimmy Ricks And The Ravens - Oh What A Feeling
TTITLE9=Lightnin' Hopkins - War Is Starting
TTITLE10=Titus Turner - That's Allright
TTITLE11=Byther Smith - Cut You Loose
TTITLE12=Screamin' Jay Hawkins - The Whammy
TTITLE13=Maria Muldaur - Don't You Feel My Leg
TTITLE14=Ike Turner With Jimmy Thomas - Hey Hey
TTITLE15=Long John Baldry With Kathi McDonald - Insane Asylum
TTITLE16=Louisiana Red - Trouble All My Days
TTITLE17=Todd Sharpville - Touch Of Your Love
TTITLE18=Eddie Clearwater - Mayor Daley's Blues
TTITLE19=Charlie Musselwhite - Walk Right In (The Walkin' Blues)
EXTD=
EXTT0=
EXTT1=
EXTT2=
EXTT3=
EXTT4=
EXTT5=
EXTT6=
EXTT7=
EXTT8=
EXTT9=
EXTT10=
EXTT11=
EXTT12=
EXTT13=
EXTT14=
EXTT15=
EXTT16=
EXTT17=
EXTT18=
EXTT19=
PLAYORDER=
